<mxfile host="app.diagrams.net" modified="2023-10-23T18:39:05.050Z" agent="Mozilla/5.0 (Windows NT 10.0; Win64; x64) AppleWebKit/537.36 (KHTML, like Gecko) Chrome/118.0.0.0 Safari/537.36" etag="Q_JpogcHkGLoFjQObYN2" version="22.0.6" type="github">
  <diagram name="PÃ¡gina-1" id="vAHAjo6Sf7zO8xVUhwXF">
    <mxGraphModel dx="1232" dy="1108" grid="1" gridSize="10" guides="1" tooltips="1" connect="1" arrows="1" fold="1" page="1" pageScale="1" pageWidth="1169" pageHeight="827" math="0" shadow="0">
      <root>
        <mxCell id="0" />
        <mxCell id="1" parent="0" />
        <mxCell id="krVn1-1Q8_K3ztCeWKRY-8" style="edgeStyle=orthogonalEdgeStyle;rounded=0;orthogonalLoop=1;jettySize=auto;html=1;entryX=0;entryY=0.5;entryDx=0;entryDy=0;" edge="1" parent="1" source="krVn1-1Q8_K3ztCeWKRY-1" target="krVn1-1Q8_K3ztCeWKRY-2">
          <mxGeometry relative="1" as="geometry" />
        </mxCell>
        <mxCell id="krVn1-1Q8_K3ztCeWKRY-9" style="edgeStyle=orthogonalEdgeStyle;rounded=0;orthogonalLoop=1;jettySize=auto;html=1;entryX=0;entryY=0.5;entryDx=0;entryDy=0;" edge="1" parent="1" source="krVn1-1Q8_K3ztCeWKRY-1" target="krVn1-1Q8_K3ztCeWKRY-3">
          <mxGeometry relative="1" as="geometry" />
        </mxCell>
        <mxCell id="krVn1-1Q8_K3ztCeWKRY-10" style="edgeStyle=orthogonalEdgeStyle;rounded=0;orthogonalLoop=1;jettySize=auto;html=1;entryX=0;entryY=0.5;entryDx=0;entryDy=0;" edge="1" parent="1" source="krVn1-1Q8_K3ztCeWKRY-1" target="krVn1-1Q8_K3ztCeWKRY-4">
          <mxGeometry relative="1" as="geometry" />
        </mxCell>
        <mxCell id="krVn1-1Q8_K3ztCeWKRY-11" style="edgeStyle=orthogonalEdgeStyle;rounded=0;orthogonalLoop=1;jettySize=auto;html=1;entryX=0;entryY=0.5;entryDx=0;entryDy=0;" edge="1" parent="1" source="krVn1-1Q8_K3ztCeWKRY-1" target="krVn1-1Q8_K3ztCeWKRY-6">
          <mxGeometry relative="1" as="geometry" />
        </mxCell>
        <mxCell id="krVn1-1Q8_K3ztCeWKRY-1" value="Nuevo Objeto Tipificaciones CC" style="rounded=1;whiteSpace=wrap;html=1;fillColor=#f8cecc;strokeColor=#b85450;" vertex="1" parent="1">
          <mxGeometry x="80" y="330" width="120" height="60" as="geometry" />
        </mxCell>
        <mxCell id="krVn1-1Q8_K3ztCeWKRY-2" value="RecordType Servicio" style="rounded=1;whiteSpace=wrap;html=1;fillColor=#f5f5f5;fontColor=#333333;strokeColor=#666666;" vertex="1" parent="1">
          <mxGeometry x="250" y="290" width="130" height="30" as="geometry" />
        </mxCell>
        <mxCell id="krVn1-1Q8_K3ztCeWKRY-3" value="RecordType 1" style="rounded=1;whiteSpace=wrap;html=1;fillColor=#f5f5f5;fontColor=#333333;strokeColor=#666666;" vertex="1" parent="1">
          <mxGeometry x="250" y="330" width="130" height="30" as="geometry" />
        </mxCell>
        <mxCell id="krVn1-1Q8_K3ztCeWKRY-4" value="RecordType 2" style="rounded=1;whiteSpace=wrap;html=1;fillColor=#f5f5f5;fontColor=#333333;strokeColor=#666666;" vertex="1" parent="1">
          <mxGeometry x="250" y="370" width="130" height="30" as="geometry" />
        </mxCell>
        <mxCell id="krVn1-1Q8_K3ztCeWKRY-6" value="RecordType 3" style="rounded=1;whiteSpace=wrap;html=1;fillColor=#f5f5f5;fontColor=#333333;strokeColor=#666666;" vertex="1" parent="1">
          <mxGeometry x="250" y="410" width="130" height="30" as="geometry" />
        </mxCell>
        <mxCell id="krVn1-1Q8_K3ztCeWKRY-19" style="edgeStyle=orthogonalEdgeStyle;rounded=0;orthogonalLoop=1;jettySize=auto;html=1;entryX=1;entryY=0.5;entryDx=0;entryDy=0;" edge="1" parent="1" source="krVn1-1Q8_K3ztCeWKRY-13" target="krVn1-1Q8_K3ztCeWKRY-14">
          <mxGeometry relative="1" as="geometry" />
        </mxCell>
        <mxCell id="krVn1-1Q8_K3ztCeWKRY-20" style="edgeStyle=orthogonalEdgeStyle;rounded=0;orthogonalLoop=1;jettySize=auto;html=1;entryX=1;entryY=0.5;entryDx=0;entryDy=0;" edge="1" parent="1" source="krVn1-1Q8_K3ztCeWKRY-13" target="krVn1-1Q8_K3ztCeWKRY-16">
          <mxGeometry relative="1" as="geometry" />
        </mxCell>
        <mxCell id="krVn1-1Q8_K3ztCeWKRY-21" style="edgeStyle=orthogonalEdgeStyle;rounded=0;orthogonalLoop=1;jettySize=auto;html=1;entryX=1;entryY=0.5;entryDx=0;entryDy=0;" edge="1" parent="1" source="krVn1-1Q8_K3ztCeWKRY-13" target="krVn1-1Q8_K3ztCeWKRY-17">
          <mxGeometry relative="1" as="geometry" />
        </mxCell>
        <mxCell id="krVn1-1Q8_K3ztCeWKRY-22" style="edgeStyle=orthogonalEdgeStyle;rounded=0;orthogonalLoop=1;jettySize=auto;html=1;entryX=1;entryY=0.5;entryDx=0;entryDy=0;" edge="1" parent="1" source="krVn1-1Q8_K3ztCeWKRY-13" target="krVn1-1Q8_K3ztCeWKRY-18">
          <mxGeometry relative="1" as="geometry" />
        </mxCell>
        <mxCell id="krVn1-1Q8_K3ztCeWKRY-13" value="Case" style="rounded=1;whiteSpace=wrap;html=1;fillColor=#fff2cc;strokeColor=#d6b656;" vertex="1" parent="1">
          <mxGeometry x="940" y="340" width="120" height="60" as="geometry" />
        </mxCell>
        <mxCell id="krVn1-1Q8_K3ztCeWKRY-14" value="CustomField Servicio" style="whiteSpace=wrap;html=1;fillColor=#dae8fc;strokeColor=#6c8ebf;rounded=1;" vertex="1" parent="1">
          <mxGeometry x="730" y="290" width="140" height="30" as="geometry" />
        </mxCell>
        <mxCell id="krVn1-1Q8_K3ztCeWKRY-16" value="CustomField 1" style="whiteSpace=wrap;html=1;fillColor=#dae8fc;strokeColor=#6c8ebf;rounded=1;" vertex="1" parent="1">
          <mxGeometry x="730" y="330" width="140" height="30" as="geometry" />
        </mxCell>
        <mxCell id="krVn1-1Q8_K3ztCeWKRY-17" value="CustomField 2" style="whiteSpace=wrap;html=1;fillColor=#dae8fc;strokeColor=#6c8ebf;rounded=1;" vertex="1" parent="1">
          <mxGeometry x="730" y="370" width="140" height="30" as="geometry" />
        </mxCell>
        <mxCell id="krVn1-1Q8_K3ztCeWKRY-18" value="CustomField 3" style="whiteSpace=wrap;html=1;fillColor=#dae8fc;strokeColor=#6c8ebf;rounded=1;" vertex="1" parent="1">
          <mxGeometry x="730" y="410" width="140" height="30" as="geometry" />
        </mxCell>
      </root>
    </mxGraphModel>
  </diagram>
</mxfile>
